<?xml version="1.0" encoding="UTF-8" standalone="no"?>
<svg
   width="64px"
   height="64px"
   viewBox="0 0 64 64"
   version="1.1"
   id="Assembly_InsertLink"
   xmlns="http://www.w3.org/2000/svg"
   xmlns:svg="http://www.w3.org/2000/svg"
   xmlns:rdf="http://www.w3.org/1999/02/22-rdf-syntax-ns#"
   xmlns:cc="http://creativecommons.org/ns#"
   xmlns:dc="http://purl.org/dc/elements/1.1/">
  <metadata id="metadata1">
    <rdf:RDF>
      <cc:Work rdf:about="">
        <dc:format>image/svg+xml</dc:format>
        <dc:type rdf:resource="http://purl.org/dc/dcmitype/StillImage" />
        <dc:title>Assembly_InsertLink</dc:title>
        <dc:description>A part added to the assembly</dc:description>
        <dc:publisher>
          <cc:Agent>
            <dc:title>FuCad</dc:title>
          </cc:Agent>
        </dc:publisher>
        <dc:rights>
          <cc:Agent>
            <dc:title>FreeCAD LGPL2+</dc:title>
          </cc:Agent>
        </dc:rights>
        <cc:license>https://www.gnu.org/copyleft/lesser.html</cc:license>
      </cc:Work>
    </rdf:RDF>
  </metadata>
  <g id="layer1">
    <path d="M 32.00,4.50 L 10.83,16.72 L 32.00,28.94 L 53.17,16.72 Z" style="fill:#d3e5f6;stroke:#0b1521;stroke-width:3.00;stroke-linejoin:round;stroke-linecap:round" />
    <path d="M 10.83,35.93 L 32.00,48.15 L 32.00,28.94 L 10.83,16.72 Z" style="fill:#a9c9e8;stroke:#0b1521;stroke-width:3.00;stroke-linejoin:round;stroke-linecap:round" />
    <path d="M 53.17,35.93 L 53.17,16.72 L 32.00,28.94 L 32.00,48.15 Z" style="fill:#7ea8d1;stroke:#0b1521;stroke-width:3.00;stroke-linejoin:round;stroke-linecap:round" />
    <path d="M 52.42,48.15 L 52.20,50.36 L 51.56,52.49 L 50.51,54.46 L 49.10,56.18 L 47.38,57.59 L 45.42,58.64 L 43.29,59.28 L 41.07,59.50 L 38.86,59.28 L 36.73,58.64 L 34.77,57.59 L 33.05,56.18 L 31.64,54.46 L 30.59,52.49 L 29.94,50.36 L 29.72,48.15 L 29.94,45.94 L 30.59,43.81 L 31.64,41.85 L 33.05,40.13 L 34.77,38.71 L 36.73,37.67 L 38.86,37.02 L 41.07,36.80 L 43.29,37.02 L 45.42,37.67 L 47.38,38.71 L 49.10,40.13 L 50.51,41.85 L 51.56,43.81 L 52.20,45.94 Z" style="fill:#f0a202;stroke:#0b1521;stroke-width:2.50;stroke-linejoin:round;stroke-linecap:round" />
    <path d="M 34.96,48.15 L 47.18,48.15" style="fill:none;stroke:#0b1521;stroke-width:7.50;stroke-linejoin:round;stroke-linecap:round" />
    <path d="M 34.96,48.15 L 47.18,48.15" style="fill:none;stroke:#f4f6f8;stroke-width:4.00;stroke-linejoin:round;stroke-linecap:round" />
    <path d="M 41.07,42.04 L 41.07,54.26" style="fill:none;stroke:#0b1521;stroke-width:7.50;stroke-linejoin:round;stroke-linecap:round" />
    <path d="M 41.07,42.04 L 41.07,54.26" style="fill:none;stroke:#f4f6f8;stroke-width:4.00;stroke-linejoin:round;stroke-linecap:round" />
  </g>
</svg>
