<?xml version="1.0" encoding="UTF-8" standalone="no"?>
<svg
   width="64px"
   height="64px"
   viewBox="0 0 64 64"
   version="1.1"
   id="PartDesign_AdditiveEllipsoid"
   xmlns="http://www.w3.org/2000/svg"
   xmlns:svg="http://www.w3.org/2000/svg"
   xmlns:rdf="http://www.w3.org/1999/02/22-rdf-syntax-ns#"
   xmlns:cc="http://creativecommons.org/ns#"
   xmlns:dc="http://purl.org/dc/elements/1.1/">
  <metadata id="metadata1">
    <rdf:RDF>
      <cc:Work rdf:about="">
        <dc:format>image/svg+xml</dc:format>
        <dc:type rdf:resource="http://purl.org/dc/dcmitype/StillImage" />
        <dc:title>PartDesign_AdditiveEllipsoid</dc:title>
        <dc:description>An additive ellipsoid primitive</dc:description>
        <dc:publisher>
          <cc:Agent>
            <dc:title>FuCad</dc:title>
          </cc:Agent>
        </dc:publisher>
        <dc:rights>
          <cc:Agent>
            <dc:title>FreeCAD LGPL2+</dc:title>
          </cc:Agent>
        </dc:rights>
        <cc:license>https://www.gnu.org/copyleft/lesser.html</cc:license>
      </cc:Work>
    </rdf:RDF>
  </metadata>
  <g id="layer1">
    <path d="M 59.50,32.00 L 59.37,33.68 L 58.97,35.35 L 58.32,36.99 L 57.41,38.58 L 56.25,40.10 L 54.87,41.55 L 53.26,42.90 L 51.45,44.15 L 49.45,45.29 L 47.28,46.29 L 44.96,47.16 L 42.52,47.88 L 39.98,48.45 L 37.36,48.86 L 34.70,49.10 L 32.00,49.19 L 29.30,49.10 L 26.64,48.86 L 24.02,48.45 L 21.48,47.88 L 19.04,47.16 L 16.72,46.29 L 14.55,45.29 L 12.55,44.15 L 10.74,42.90 L 9.13,41.55 L 7.75,40.10 L 6.59,38.58 L 5.68,36.99 L 5.03,35.35 L 4.63,33.68 L 4.50,32.00 L 4.63,30.32 L 5.03,28.65 L 5.68,27.01 L 6.59,25.42 L 7.75,23.90 L 9.13,22.45 L 10.74,21.10 L 12.55,19.85 L 14.55,18.71 L 16.72,17.71 L 19.04,16.84 L 21.48,16.12 L 24.02,15.55 L 26.64,15.14 L 29.30,14.90 L 32.00,14.81 L 34.70,14.90 L 37.36,15.14 L 39.98,15.55 L 42.52,16.12 L 44.96,16.84 L 47.28,17.71 L 49.45,18.71 L 51.45,19.85 L 53.26,21.10 L 54.87,22.45 L 56.25,23.90 L 57.41,25.42 L 58.32,27.01 L 58.97,28.65 L 59.37,30.32 Z" style="fill:#f0a202;stroke:#0b1521;stroke-width:3.00;stroke-linejoin:round;stroke-linecap:round" />
    <path d="M 35.85,26.84 L 35.75,27.74 L 35.46,28.62 L 34.97,29.47 L 34.30,30.28 L 33.46,31.03 L 32.47,31.71 L 31.33,32.30 L 30.07,32.80 L 28.72,33.20 L 27.29,33.48 L 25.81,33.66 L 24.30,33.72 L 22.79,33.66 L 21.31,33.48 L 19.88,33.20 L 18.53,32.80 L 17.27,32.30 L 16.13,31.71 L 15.14,31.03 L 14.30,30.28 L 13.63,29.47 L 13.14,28.62 L 12.85,27.74 L 12.75,26.84 L 12.85,25.95 L 13.14,25.06 L 13.63,24.21 L 14.30,23.41 L 15.14,22.66 L 16.13,21.98 L 17.27,21.39 L 18.52,20.89 L 19.88,20.49 L 21.31,20.20 L 22.79,20.03 L 24.30,19.97 L 25.81,20.03 L 27.29,20.20 L 28.72,20.49 L 30.07,20.89 L 31.33,21.39 L 32.47,21.98 L 33.46,22.66 L 34.30,23.41 L 34.97,24.21 L 35.46,25.06 L 35.75,25.95 Z" style="fill:#ffc94d;stroke:none" />
    <path d="M 59.50,32.00 L 59.37,33.68 L 58.97,35.35 L 58.32,36.99 L 57.41,38.58 L 56.25,40.10 L 54.87,41.55 L 53.26,42.90 L 51.45,44.15 L 49.45,45.29 L 47.28,46.29 L 44.96,47.16 L 42.52,47.88 L 39.98,48.45 L 37.36,48.86 L 34.70,49.10 L 32.00,49.19 L 29.30,49.10 L 26.64,48.86 L 24.02,48.45 L 21.48,47.88 L 19.04,47.16 L 16.72,46.29 L 14.55,45.29 L 12.55,44.15 L 10.74,42.90 L 9.13,41.55 L 7.75,40.10 L 6.59,38.58 L 5.68,36.99 L 5.03,35.35 L 4.63,33.68 L 4.50,32.00 L 4.63,30.32 L 5.03,28.65 L 5.68,27.01 L 6.59,25.42 L 7.75,23.90 L 9.13,22.45 L 10.74,21.10 L 12.55,19.85 L 14.55,18.71 L 16.72,17.71 L 19.04,16.84 L 21.48,16.12 L 24.02,15.55 L 26.64,15.14 L 29.30,14.90 L 32.00,14.81 L 34.70,14.90 L 37.36,15.14 L 39.98,15.55 L 42.52,16.12 L 44.96,16.84 L 47.28,17.71 L 49.45,18.71 L 51.45,19.85 L 53.26,21.10 L 54.87,22.45 L 56.25,23.90 L 57.41,25.42 L 58.32,27.01 L 58.97,28.65 L 59.37,30.32 Z" style="fill:none;stroke:#0b1521;stroke-width:3.00;stroke-linejoin:round;stroke-linecap:round" />
  </g>
</svg>
